<?xml version="1.0" standalone="no"?>
<!DOCTYPE svg PUBLIC "-//W3C//DTD SVG 20010904//EN"
 "http://www.w3.org/TR/2001/REC-SVG-20010904/DTD/svg10.dtd">
<svg version="1.0" xmlns="http://www.w3.org/2000/svg"
 width="260.000000pt" height="260.000000pt" viewBox="0 0 260.000000 260.000000"
 preserveAspectRatio="xMidYMid meet">
<metadata>
Created by potrace 1.14, written by Peter Selinger 2001-2017
</metadata>
<g transform="translate(0.000000,260.000000) scale(0.100000,-0.100000)"
fill="#000000" stroke="none">
<path d="M0 1300 l0 -1300 1300 0 1300 0 0 1300 0 1300 -1300 0 -1300 0 0
-1300z m1517 648 l203 -203 0 128 0 127 75 0 75 0 0 -202 0 -203 195 -195 195
-195 -60 -60 -60 -60 -203 200 c-111 110 -298 294 -415 410 l-212 210 -413
-413 -412 -412 -63 62 -62 63 472 472 c260 260 475 473 478 473 3 0 96 -91
207 -202z m-57 -813 l0 -255 -145 0 -145 0 0 255 0 255 145 0 145 0 0 -255z
m-440 -523 c0 -37 1 -38 30 -34 73 11 100 -22 100 -119 0 -46 -2 -49 -25 -49
-24 0 -25 3 -25 60 0 49 -3 61 -20 70 -14 8 -26 8 -40 0 -17 -9 -20 -21 -20
-70 0 -57 -1 -60 -25 -60 l-25 0 0 120 0 120 25 0 c22 0 25 -4 25 -38z m1100
0 l0 -38 40 4 c77 8 122 -57 86 -126 -19 -37 -32 -41 -113 -41 l-63 1 0 119 0
119 25 0 c22 0 25 -4 25 -38z m-1680 -24 c13 -29 29 -68 37 -87 l15 -34 37 84
c29 67 41 85 60 87 27 4 30 15 -32 -129 -38 -90 -44 -99 -66 -97 -21 3 -32 20
-73 112 -26 59 -48 110 -48 112 0 2 11 4 24 4 19 0 28 -10 46 -52z m927 18
c50 -58 12 -125 -75 -134 -49 -4 -52 -6 -52 -33 0 -22 -5 -29 -20 -29 -19 0
-20 7 -20 116 l0 117 72 -5 c62 -5 75 -9 95 -32z m-625 -43 c14 -12 18 -31 18
-83 l0 -68 -62 -1 c-44 0 -67 4 -80 16 -40 36 -8 83 59 83 46 0 56 13 22 30
-14 8 -29 8 -49 2 -23 -9 -30 -7 -35 5 -8 22 12 33 64 33 28 0 51 -6 63 -17z
m192 9 c10 -17 -11 -30 -48 -28 -46 1 -61 -20 -19 -29 56 -12 73 -24 73 -49 0
-38 -25 -56 -78 -56 -55 0 -75 10 -67 32 5 13 12 14 40 5 35 -10 65 -5 65 13
0 5 -18 13 -41 16 -27 5 -46 15 -56 30 -14 22 -14 26 1 49 14 22 24 25 71 25
29 0 56 -4 59 -8z m586 -13 c0 -12 -7 -19 -20 -19 -26 0 -40 -29 -40 -84 0
-39 -3 -46 -20 -46 -18 0 -20 7 -20 84 l0 84 50 0 c42 0 50 -3 50 -19z m175
-4 c56 -55 16 -145 -64 -145 -83 0 -125 87 -70 146 32 34 100 34 134 -1z m165
4 c0 -12 -7 -19 -20 -19 -26 0 -40 -29 -40 -84 0 -39 -3 -46 -20 -46 -18 0
-20 7 -20 84 l0 84 50 0 c42 0 50 -3 50 -19z m137 13 c19 -12 33 -60 33 -112
l0 -48 -67 -1 c-75 0 -93 9 -93 50 0 34 23 49 74 49 38 0 45 10 21 30 -14 12
-30 11 -66 -4 -21 -9 -36 24 -17 36 16 10 99 10 115 0z"/>
<path d="M2138 539 c-12 -6 -18 -22 -18 -44 0 -42 26 -60 64 -45 21 8 26 16
26 44 0 47 -34 68 -72 45z"/>
<path d="M1240 555 c0 -44 1 -45 31 -45 43 0 69 17 69 45 0 28 -26 45 -69 45
-30 0 -31 -1 -31 -45z"/>
<path d="M650 460 c0 -23 38 -28 58 -8 20 20 14 28 -23 28 -28 0 -35 -4 -35
-20z"/>
<path d="M1597 532 c-23 -26 -21 -58 5 -76 12 -9 26 -16 30 -16 14 0 48 39 48
55 0 19 -35 55 -53 55 -8 0 -21 -8 -30 -18z"/>
<path d="M1914 469 c-10 -18 13 -32 40 -25 37 9 34 36 -3 36 -17 0 -33 -5 -37
-11z"/>
</g>
</svg>
